<svg width="95" height="113" viewBox="0 0 95 113" fill="none" xmlns="http://www.w3.org/2000/svg">
<path d="M47.5 0.720001C46 0.720001 45.791 0.720997 45.791 0.720997L42.287 0.721003C37.335 0.721003 35.997 1.212 34.709 3.499C33.968 4.815 33.994 4.50499 33.956 12.367L33.921 19.472L32.884 19.831C15.511 25.853 3.33302 40.944 1.05702 59.271C0.815019 61.218 0.779019 67.943 1.00002 69.742C2.74702 83.929 9.68602 95.645 21.109 103.692C33.009 112.075 49.012 114.457 62.885 109.91C90.401 100.891 103.593 69.7449 90.872 43.8319C85.348 32.5799 74.62 23.222 63.184 19.678L62.575 19.489L62.54 12.375C62.502 4.50299 62.528 4.814 61.787 3.498C60.499 1.211 59.161 0.720001 54.212 0.720001H50.711C49.3293 0.721003 48.5 0.720001 47.5 0.720001ZM57.369 5.75L57.651 5.971V17.281H38.846V5.971L39.128 5.75C39.572 5.401 56.925 5.401 57.369 5.75ZM50.171 22.2C83.06 23.794 101.876 60.389 83.97 87.936C67.192 113.748 29.317 113.748 12.525 87.936C-5.31498 60.513 13.455 23.776 46.111 22.202C47.022 22.158 47.815 22.116 47.874 22.108C47.933 22.1 48.967 22.141 50.171 22.2Z" fill="white"/>
</svg>
